<?xml version="1.0" standalone="no"?><!DOCTYPE svg PUBLIC "-//W3C//DTD SVG 1.1//EN" "http://www.w3.org/Graphics/SVG/1.1/DTD/svg11.dtd"><svg t="1585796630112" class="icon" viewBox="0 0 1024 1024" version="1.1" xmlns="http://www.w3.org/2000/svg" p-id="4233" xmlns:xlink="http://www.w3.org/1999/xlink" width="128" height="128"><defs><style type="text/css"></style></defs><path d="M497.70123605 1015.10464626H35.37454535a26.47919161 26.47919161 0 0 1-26.4527121-27.90906767l51.6873819-953.25090929A26.47919161 26.47919161 0 0 1 87.06192839 8.89535374h358.95192576a26.47919161 26.47919161 0 0 1 26.4262326 25.04931556l51.68738304 953.25090929A26.47919161 26.47919161 0 0 1 497.67475769 1015.10464626zM419.3228288 61.85373696H113.75295374L64.92532395 962.14626304h403.22513464L419.3228288 61.85373696z m540.59918222 423.66707143H576.55626979a26.47919161 26.47919161 0 0 1-26.42623374-25.04931556l-22.98393827-423.66707142A26.47919161 26.47919161 0 0 1 553.59881102 8.89535374h383.33926059a26.47919161 26.47919161 0 0 1 26.45271324 25.04931556l22.95745878 423.66707029A26.47919161 26.47919161 0 0 1 959.92201102 485.52080839zM910.24704626 61.85373696H583.12310898l20.12418617 370.70868707H930.37123243l-20.09770667-370.70868707z m81.82070272 501.67477021l22.98393941 423.66707142A26.47919161 26.47919161 0 0 1 988.62545465 1015.10464626H605.25971342a26.47919161 26.47919161 0 0 1-26.4262326-25.04931556l-22.98393941-423.66707029A26.47919161 26.47919161 0 0 1 582.30225465 538.47919161h383.36574009a26.47919161 26.47919161 0 0 1 26.42623374 25.04931556zM938.97696939 591.43757597H611.85303325l20.09770666 370.70868707h327.12393614l-20.09770666-370.70868707zM63.28361415 485.52080839h409.10351474v52.95838322H63.31009251v-52.95838322z" p-id="4234"></path></svg>