<?xml version="1.0" standalone="no"?><!DOCTYPE svg PUBLIC "-//W3C//DTD SVG 1.1//EN" "http://www.w3.org/Graphics/SVG/1.1/DTD/svg11.dtd"><svg t="1585796638563" class="icon" viewBox="0 0 1024 1024" version="1.1" xmlns="http://www.w3.org/2000/svg" p-id="4370" xmlns:xlink="http://www.w3.org/1999/xlink" width="128" height="128"><defs><style type="text/css"></style></defs><path d="M173.28355555 539.648c19.56977778 31.63022222 45.62488889 57.23022222 77.25511112 76.11733333 28.44444445 16.95288889 61.32622222 28.10311111 95.232 32.08533334 9.89866667 1.13777778 19.79733333 1.70666667 29.80977778 1.70666666 23.66577778 0 47.21777778-3.29955555 69.40444444-9.89866666 16.384-4.89244445 31.744-11.37777778 45.85244444-19.456 12.97066667-7.50933333 24.80355555-16.27022222 35.27111112-26.05511112l1.13777777-0.22755555c0-0.22755555-0.11377778-0.45511111-0.11377777-0.68266667 0.56888889-0.45511111 1.024-1.024 1.59288888-1.47911111 3.41333333-3.41333333 6.71288889-6.94044445 9.89866667-10.69511111-17.63555555-30.03733333-29.01333333-66.56-33.10933333-105.81333333-3.29955555 11.94666667-7.85066667 23.21066667-13.312 33.22311111-50.97244445-84.53688889-137.44355555-151.21066667-171.80444445-176.35555556-8.30577778-6.03022222-19.79733333-5.00622222-26.96533333 2.50311112-7.62311111 8.07822222-7.39555555 20.70755555 0.45511111 28.55822222 31.63022222 31.28888889 107.29244445 111.38844445 143.92888889 194.67377778-24.12088889 10.35377778-53.248 14.44977778-82.60266667 10.92266666-28.21688889-3.41333333-80.66844445-17.06666667-114.11911111-71.11111111-24.23466667-39.02577778-38.11555555-122.99377778-39.02577778-236.31644445-0.34133333-36.18133333 0.79644445-70.42844445 2.16177778-98.53155555 58.02666667 41.30133333 150.41422222 102.51377778 239.95733334 142.79111111 41.18755555 18.54577778 57.68533333 53.58933333 64.17066666 82.14755556 0.11377778-0.79644445 0.22755555-1.47911111 0.34133334-2.27555556 6.48533333-36.63644445 18.77333333-70.656 36.2951111-100.92088889-18.09066667-21.95911111-41.07377778-39.48088889-68.15288888-51.65511111C343.04 172.71466667 195.69777778 57.344 194.21866667 56.09244445l-57.00266667-44.94222223-7.28177778 72.24888889c-0.34133333 3.29955555-8.192 82.944-7.50933333 177.72088889 0.91022222 131.98222222 18.09066667 225.62133333 50.85866666 278.528zM1016.14933333 1021.49688889L920.68977778 919.32444445c-0.11377778-0.11377778-0.34133333-0.22755555-0.56888889-0.22755556H102.96888889c-0.22755555 0-0.45511111 0.11377778-0.56888889 0.22755556l-100.80711111 102.17244444c-0.45511111 0.45511111-0.11377778 1.36533333 0.56888889 1.36533333h1013.41866667c0.68266667 0 1.024-0.79644445 0.56888888-1.36533333zM725.33333333 740.23822222H292.29511111c-0.22755555 0-0.45511111 0.11377778-0.68266666 0.22755556l-116.2808889 101.94488889c-0.68266667 0.56888889-0.22755555 1.59288889 0.68266667 1.59288888h665.6c0.91022222 0 1.36533333-1.024 0.68266667-1.59288888l-116.28088889-101.94488889c-0.22755555-0.11377778-0.45511111-0.22755555-0.68266667-0.22755556zM718.16533333 607.34577778c9.55733333 0 19.22844445-0.56888889 29.01333334-1.93422223 70.99733333-9.216 132.32355555-49.72088889 168.16355555-111.16088888 85.10577778-145.86311111 31.85777778-361.58577778 29.58222223-370.688l-14.56355556-57.45777778-45.16977778 38.34311111c-1.13777778 1.024-117.64622222 99.328-211.74044444 143.24622222-60.416 28.21688889-101.94488889 83.74044445-114.00533334 152.34844445-11.15022222 63.60177778 4.89244445 128 41.07377778 164.18133333 27.648 27.76177778 70.31466667 43.12177778 117.64622222 43.12177778z m-86.016-194.44622223c4.66488889-26.16888889 20.13866667-73.728 72.47644445-98.19022222 63.60177778-29.696 133.57511111-79.53066667 179.08622222-114.46044444 8.87466667 67.01511111 13.76711111 177.72088889-32.31288889 256.68266666-24.23466667 41.52888889-65.64977778 68.83555555-113.77777778 75.09333334-7.96444445 1.024-15.92888889 1.36533333-23.552 1.13777778-0.22755555-20.36622222 2.61688889-52.224 29.12711112-91.24977778 15.47377778-22.75555555 38.912-45.96622222 49.152-66.10488889 1.47911111-2.84444445 3.072-5.68888889 4.5511111-8.41955555l16.9528889 15.47377777-16.9528889-15.47377777c6.37155555-11.60533333 12.40177778-23.09688889 7.96444445-35.3848889-1.47911111-3.98222222-5.80266667-4.89244445-9.67111111-3.29955555-21.04888889 8.41955555-59.84711111 50.63111111-83.51288889 85.44711111-25.25866667 37.09155555-47.44533333 68.49422222-60.07466667 96.59733334-15.47377778-16.72533333-26.96533333-55.06844445-19.456-97.8488889z" p-id="4371"></path></svg>