<?xml version="1.0" standalone="no"?><!DOCTYPE svg PUBLIC "-//W3C//DTD SVG 1.1//EN" "http://www.w3.org/Graphics/SVG/1.1/DTD/svg11.dtd"><svg t="1585796702128" class="icon" viewBox="0 0 1024 1024" version="1.1" xmlns="http://www.w3.org/2000/svg" p-id="4504" xmlns:xlink="http://www.w3.org/1999/xlink" width="128" height="128"><defs><style type="text/css"></style></defs><path d="M603.26494815 641.97164247c-3.88361482 0-30.68055703-27.31475753-11.52139062-77.93120395 42.20194765-42.8492168 76.63666569-113.01319111 76.63666567-183.30661927 0-105.24596148-72.75305086-159.87547653-149.38971653-159.87547653-80.39082667 0-149.38971653 54.62951506-149.38971654 159.87547653 0 70.16397431 30.68055703 140.32794864 72.75305085 183.30661927 15.27555161 42.8492168-11.52139061 74.04758914-19.15916641 77.93120395-84.27444148 31.19837235-180.07027358 85.82788741-180.07027359 144.21156345v19.54752791c0 74.04758914 141.75194075 93.59511703 275.86610569 93.59511703 130.23055013 0 271.98249086-15.53445925 271.98249086-93.59511703v-19.54752791c-3.75416098-58.38367605-103.4336079-116.89680592-187.70804938-144.21156345z m0 0" p-id="4505"></path><path d="M856.08827259 501.64369383c-3.88361482 0-26.79694222-7.76722963-11.52139062-54.62951507 38.31833283-38.96560197 65.11527506-105.24596148 65.11527506-171.52632098 0-97.47873185-61.23166025-152.10824691-137.86832592-152.10824692-53.59388445 0-103.4336079 27.31475753-122.59277431 81.81481877 45.95610864 38.96560197 76.63666569 97.47873185 76.63666567 175.4099358 0 81.94427259-38.31833283 159.87547653-80.39082666 210.49192296 65.11527506 23.43114272 164.79472197 74.04758914 191.59166419 152.10824692 99.54999309-3.88361482 191.59166419-27.31475753 191.59166419-85.82788741v-19.5475279c3.75416098-58.25422222-88.28751013-108.87066864-172.5619516-136.18542617z m-689.60053728 0c3.88361482 0 26.79694222-7.76722963 11.52139061-54.62951507-38.31833283-38.96560197-65.11527506-105.24596148-65.11527506-171.52632098 3.88361482-97.47873185 65.11527506-152.10824691 137.86832594-152.10824692 53.59388445 0 103.4336079 27.31475753 122.59277431 81.81481877-45.95610864 38.96560197-76.63666569 97.47873185-76.63666568 175.4099358 0 81.94427259 38.31833283 159.87547653 80.39082667 210.49192296-65.11527506 23.43114272-164.79472197 74.04758914-191.5916642 152.10824692-99.54999309-3.88361482-191.59166419-27.31475753-191.5916642-85.82788741v-19.5475279c0.25890765-58.25422222 92.17112494-108.87066864 172.56195161-136.18542617z m0 0" p-id="4506"></path></svg>